<svg xmlns="http://www.w3.org/2000/svg" viewBox="0 0 1200 630" role="img" aria-label="Our Movie Nights">
  <defs>
    <linearGradient id="bg" x1="0%" y1="0%" x2="100%" y2="100%">
      <stop offset="0%" stop-color="#141416"/>
      <stop offset="55%" stop-color="#1c1a22"/>
      <stop offset="100%" stop-color="#0e0e10"/>
    </linearGradient>
    <radialGradient id="glow" cx="30%" cy="20%" r="55%">
      <stop offset="0%" stop-color="#c4a882" stop-opacity="0.22"/>
      <stop offset="100%" stop-color="#c4a882" stop-opacity="0"/>
    </radialGradient>
  </defs>
  <rect width="1200" height="630" fill="url(#bg)"/>
  <rect width="1200" height="630" fill="url(#glow)"/>
  <g transform="translate(230 240) scale(0.42)">
    <path
      d="M76 208C76 118 128 68 256 68s180 50 180 140l-10 196c0 38-34 60-170 60s-170-22-170-60Z"
      fill="#c4a882"
    />
    <path
      d="M116 206C116 142 158 112 256 112s140 30 140 94l-8 168c0 28-26 44-132 44s-132-16-132-44Z"
      fill="#141416"
    />
    <circle cx="196" cy="278" r="36" fill="#6898b8"/>
    <circle cx="316" cy="278" r="36" fill="#8f7eb8"/>
    <path
      d="M200 90C196 120 206 160 218 190C228 210 238 216 246 220"
      fill="none"
      stroke="#ebeae6"
      stroke-width="9"
      stroke-linecap="round"
    />
    <circle cx="246" cy="220" r="14" fill="#ebeae6"/>
    <path
      d="M312 90L358 18"
      fill="none"
      stroke="#ebeae6"
      stroke-width="10"
      stroke-linecap="round"
    />
    <circle cx="358" cy="18" r="14" fill="#ebeae6"/>
  </g>
  <text x="390" y="210" fill="#ebeae6" font-family="Plus Jakarta Sans, Segoe UI, sans-serif" font-size="56" font-weight="700">Our Movie Nights</text>
  <text x="390" y="278" fill="#a4a4b0" font-family="Plus Jakarta Sans, Segoe UI, sans-serif" font-size="30" font-weight="500">Movies ¯ TV ¯ Anime watchlists</text>
  <text x="390" y="340" fill="#c4a882" font-family="Plus Jakarta Sans, Segoe UI, sans-serif" font-size="24" font-weight="500">Organized by genre ¯ Cloud sync ¯ Share by link</text>
</svg>
